<?xml version="1.0" encoding="utf-8"?>
<!-- Generator: Adobe Illustrator 24.1.2, SVG Export Plug-In . SVG Version: 6.00 Build 0)  -->
<svg version="1.1" id="Слой_1" xmlns="http://www.w3.org/2000/svg" xmlns:xlink="http://www.w3.org/1999/xlink" x="0px" y="0px"
	 width="142px" height="95px" viewBox="0 0 142 95" style="enable-background:new 0 0 142 95;" xml:space="preserve">
<style type="text/css">
	.st0{fill:#0D2953;}
	.st1{fill-rule:evenodd;clip-rule:evenodd;fill:#E30613;}
	.st2{fill:none;stroke:#E30613;}
	.st3{fill-rule:evenodd;clip-rule:evenodd;fill:#0D2953;}
	.st4{fill:none;stroke:#0D2953;}
	.st5{fill:#FFFFFF;}
	.st6{fill:#E30613;}
	.st7{fill-rule:evenodd;clip-rule:evenodd;fill:#BB1826;}
</style>
<g>
	<path class="st7" d="M3.9,49.2C4,64,27.9,76,71,75.9c43.1,0,67.1-12.1,67-26.9c0-14.8-24-26.8-67.1-26.8
		C27.9,22.3,3.9,34.3,3.9,49.2L3.9,49.2z"/>
	<path class="st5" d="M52.2,27.5l0.2,2.9l0.5,0c0.6-0.1,0.9-0.4,0.9-1.1l-0.1-0.9c-0.1-0.6-0.4-1-1.1-0.9L52.2,27.5L52.2,27.5z
		 M52.7,26.9c1-0.1,1.6,0.4,1.7,1.4l0.1,0.9c0.1,1-0.5,1.6-1.5,1.7L52.2,31c-0.2,0-0.4-0.1-0.4-0.3l-0.3-3.3c0-0.2,0.1-0.4,0.3-0.4
		L52.7,26.9L52.7,26.9z"/>
	<path class="st5" d="M58.7,29.1l1.1-0.1l-0.6-1.6L58.7,29.1L58.7,29.1z M59.4,26.6l1.4,3.5c0,0.1,0,0.1,0,0.1
		c0,0.2-0.1,0.3-0.3,0.3c-0.1,0-0.3-0.1-0.3-0.2L60,29.6l-1.4,0.1l-0.2,0.8c0,0.1-0.2,0.2-0.3,0.2c-0.2,0-0.3-0.1-0.3-0.3
		c0,0,0-0.1,0-0.1l1.1-3.6c0-0.1,0.2-0.2,0.3-0.2C59.2,26.4,59.4,26.5,59.4,26.6L59.4,26.6z"/>
	<path class="st5" d="M64.8,26.5l0.1,3.2l1.5,0c0.2,0,0.3,0.1,0.3,0.3c0,0.2-0.1,0.3-0.3,0.3l-1.8,0c-0.2,0-0.4-0.2-0.4-0.3
		l-0.1-3.5c0-0.2,0.1-0.3,0.3-0.3C64.6,26.2,64.8,26.3,64.8,26.5L64.8,26.5z"/>
	<path class="st5" d="M73.8,26.5l0,3.6c0,0.2-0.1,0.3-0.3,0.3c-0.2,0-0.3-0.1-0.3-0.3l0-3.1l-0.5,0.3c0,0-0.1,0.1-0.2,0.1
		c-0.2,0-0.3-0.1-0.3-0.3c0-0.1,0-0.2,0.1-0.2l0.9-0.5c0.1,0,0.1,0,0.2,0C73.6,26.1,73.8,26.3,73.8,26.5L73.8,26.5z"/>
	<path class="st5" d="M77.9,27.3c0,0.3,0.2,0.6,0.6,0.6c0.3,0,0.6-0.2,0.6-0.6c0-0.4-0.2-0.6-0.6-0.6C78.2,26.8,78,27,77.9,27.3
		L77.9,27.3z M77.8,29.2c0,0.4,0.3,0.7,0.7,0.7c0.4,0,0.7-0.2,0.7-0.7c0-0.4-0.3-0.7-0.7-0.7C78.1,28.5,77.8,28.8,77.8,29.2
		L77.8,29.2z M79.7,27.4c0,0.4-0.2,0.7-0.5,0.8c0.4,0.2,0.6,0.6,0.5,1c0,0.7-0.6,1.2-1.3,1.2c-0.8,0-1.3-0.5-1.2-1.3
		c0-0.4,0.2-0.8,0.6-1c-0.3-0.2-0.5-0.5-0.4-0.9c0-0.7,0.5-1.1,1.2-1.1C79.3,26.3,79.7,26.7,79.7,27.4L79.7,27.4z"/>
	<path class="st5" d="M90.7,27.3c0-0.2-0.1-0.3-0.3-0.4l-1.9-0.2c-0.2,0-0.3,0.1-0.3,0.3c0,0.2,0.1,0.3,0.3,0.3l1.6,0.1l-1,3.1
		c0,0,0,0.1,0,0.1c0,0.2,0.1,0.3,0.3,0.3c0.1,0,0.2-0.1,0.3-0.2L90.7,27.3L90.7,27.3C90.7,27.4,90.7,27.4,90.7,27.3L90.7,27.3z"/>
	<path class="st5" d="M85.3,26.9c0-0.2-0.1-0.3-0.3-0.4l-1.9-0.1c-0.2,0-0.3,0.1-0.3,0.3c0,0.2,0.1,0.3,0.3,0.3l1.6,0.1l-0.9,3.1
		c0,0,0,0.1,0,0.1c0,0.2,0.2,0.3,0.3,0.3c0.1,0,0.2-0.1,0.2-0.2L85.3,26.9L85.3,26.9C85.3,27,85.3,26.9,85.3,26.9L85.3,26.9z"/>
	<path class="st5" d="M96.1,36.5c0.1-0.3-0.2-0.6-0.5-0.6h-3.8c-0.5,0-0.8,0.3-0.9,0.7l-7.1,22.9c-0.1,0.3,0.1,0.6,0.5,0.6H88
		c0.4,0,0.8-0.3,1-0.7L96.1,36.5L96.1,36.5z"/>
	<path class="st5" d="M104.3,36.5c0.1-0.3-0.2-0.6-0.5-0.6H100c-0.5,0-0.8,0.3-0.9,0.7L92,59.5c-0.1,0.3,0.1,0.6,0.5,0.6h3.8
		c0.4,0,0.8-0.3,1-0.7L104.3,36.5L104.3,36.5z"/>
	<path class="st5" d="M58.6,51.4c0-0.1-0.1-0.3-0.2-0.3c0,0-4.4-0.4-5.8,0.8C51.2,53.1,51,55.8,51,56c0,0-0.1,1.4,1.5,1.4
		c0.6,0,3.8,0,3.8,0c0.4,0,0.5-0.3,0.6-0.6L58.6,51.4L58.6,51.4z M51.7,48.8c3.4-0.7,7.7-0.3,7.7-0.3c0.1,0,0.2-0.1,0.2-0.2l0.4-1.1
		c0.7-2.3-2.4-2.2-2.7-2.2h0c-2.7,0-6.2,0.7-6.8,1c-0.2,0.1-0.3-0.1-0.3-0.2c0.2-0.6,0.7-1.6,1-2.2c0-0.1,0.1-0.3,0.6-0.5
		c1-0.4,4.4-1.1,9.7-0.7c0,0,5.2,0.4,3.8,5.1l-3.7,12c-0.1,0.4-0.5,0.7-1,0.7h-8.8c-5.9,0-5.8-2.8-5.9-3.9c-0.1-1.9,0.5-4.3,2.6-6.1
		C49.3,49.4,50.4,49.1,51.7,48.8L51.7,48.8z"/>
	<path class="st5" d="M113.2,51.4c0-0.1-0.1-0.3-0.2-0.3c0,0-4.4-0.4-5.8,0.8c-1.5,1.2-1.7,3.8-1.7,4.1c0,0-0.1,1.4,1.5,1.4
		c0.6,0,3.8,0,3.8,0c0.4,0,0.5-0.3,0.6-0.6L113.2,51.4L113.2,51.4z M106.2,48.8c3.4-0.7,7.7-0.3,7.7-0.3c0.1,0,0.2-0.1,0.2-0.2
		l0.4-1.1c0.7-2.3-2.4-2.2-2.7-2.2h0c-2.7,0-6.2,0.7-6.8,1c-0.2,0.1-0.3-0.1-0.3-0.2c0.2-0.6,0.7-1.6,1-2.2c0-0.1,0.1-0.3,0.6-0.5
		c1-0.4,4.4-1.1,9.7-0.7c0,0,5.2,0.4,3.8,5.1l-3.7,12c-0.1,0.4-0.5,0.7-1,0.7h-8.8c-5.9,0-5.8-2.8-5.9-3.9c-0.1-1.9,0.5-4.3,2.6-6.1
		C103.8,49.4,104.9,49.1,106.2,48.8L106.2,48.8z"/>
	<path class="st5" d="M40.5,44.6c-0.6,1-1.7,1.7-2.9,1.8l-6.1,0c-0.1,0-0.3-0.2-0.2-0.3l1.7-5.4c0.3-0.9,0.2-0.9,0.7-0.9l6.8,0
		c0.5,0,1,0.4,1.1,0.9C41.5,40.6,41.9,42.1,40.5,44.6L40.5,44.6z M37.6,55.1c-0.7,1.2-1.9,2-3.4,2h-6.1c-0.1,0-0.3-0.2-0.2-0.3
		l2.2-7.1c0-0.1,0.2-0.2,0.3-0.2l7.2,0c0.6,0,1.1,0.4,1.2,1C38.8,50.5,39.3,52.1,37.6,55.1L37.6,55.1z M43.7,36.7h-15
		c-0.2,0-0.7,0-0.9,0.7l-6.7,21.7c-0.1,0.4,0.1,1.1,0.8,1.1h15.2c7.7,0,7.9-8.9,7.9-8.9c0-1.5-1-2.9-2.4-3.4l0,0
		c0,0-0.1-0.1-0.1-0.1c0-0.1,0-0.1,0.1-0.1c1-0.3,1.9-0.7,2.6-1.5l0,0c2.1-2.3,2.1-5.9,2.1-5.9C47.4,38.3,45.7,36.7,43.7,36.7
		L43.7,36.7z"/>
	<path class="st5" d="M85.8,43.1c0.1-0.3-0.2-0.6-0.5-0.6h-3.8c-0.5,0-0.8,0.3-0.9,0.7l-5,16.3c-0.1,0.3,0.1,0.6,0.5,0.6h3.8
		c0.4,0,0.8-0.3,1-0.7L85.8,43.1L85.8,43.1z"/>
	<path class="st5" d="M87.4,38.3c-0.2,1.4-1.6,2.6-3.1,2.6c-1.5,0-2.6-1.2-2.4-2.6c0.2-1.5,1.6-2.6,3.1-2.6
		C86.6,35.7,87.6,36.9,87.4,38.3L87.4,38.3z"/>
	<path class="st5" d="M78.7,42.6c-1.7-0.6-3.8,0.6-4.5,1c-0.1,0.1-0.2,0-0.2,0l0.3-0.8c0-0.2-0.1-0.3-0.2-0.3c-0.1,0-3.8,0-4.1,0
		c-0.4,0-0.8,0.3-0.9,0.7l-5,16.3c-0.1,0.3,0.1,0.6,0.5,0.6h3.8c0.5,0,0.8-0.3,1-0.7l3.5-11.2c0.2-0.7,1-3.5,4.8-2.5
		c0.2,0,0.4,0.1,0.5-0.2C78.3,45.1,79,43,79,43C79.1,42.8,78.8,42.7,78.7,42.6L78.7,42.6z"/>
	<path class="st5" d="M124.4,44.5c0,0.2-0.2,0.4-0.5,0.4h-0.6v-0.8h0.6C124.2,44.1,124.4,44.2,124.4,44.5L124.4,44.5L124.4,44.5z
		 M124,43.6h-0.9c-0.2,0-0.3,0.1-0.3,0.3V46c0,0.2,0.1,0.3,0.3,0.3c0.2,0,0.3-0.1,0.3-0.3v-0.6h0.5l0.6,0.8c0.1,0.1,0.1,0.1,0.2,0.1
		c0.1,0,0.3-0.1,0.3-0.3c0-0.1,0-0.1-0.1-0.2l-0.4-0.5c0.3-0.1,0.5-0.4,0.5-0.8v0c0-0.2-0.1-0.4-0.2-0.6
		C124.6,43.7,124.3,43.6,124,43.6L124,43.6z M125.8,45c0,1.1-0.9,2-2,2c-1.1,0-2-0.9-2-2v0c0-1.1,0.9-2,2-2
		C125,43,125.8,43.9,125.8,45L125.8,45L125.8,45z M123.8,42.5c-1.4,0-2.5,1.1-2.5,2.5v0c0,1.4,1.1,2.5,2.5,2.5
		c1.4,0,2.5-1.1,2.5-2.5v0C126.3,43.6,125.2,42.5,123.8,42.5L123.8,42.5z"/>
</g>
</svg>
