<?xml version="1.0" encoding="utf-8"?>
<!-- Generator: Adobe Illustrator 24.1.2, SVG Export Plug-In . SVG Version: 6.00 Build 0)  -->
<svg version="1.1" id="Слой_1" xmlns="http://www.w3.org/2000/svg" xmlns:xlink="http://www.w3.org/1999/xlink" x="0px" y="0px"
	 width="142px" height="95px" viewBox="0 0 142 95" style="enable-background:new 0 0 142 95;" xml:space="preserve">
<style type="text/css">
	.st0{clip-path:url(#SVGID_2_);fill-rule:evenodd;clip-rule:evenodd;fill:#FFFFFF;}
	.st1{fill-rule:evenodd;clip-rule:evenodd;fill:#FDCE00;}
	.st2{fill-rule:evenodd;clip-rule:evenodd;fill:#EC7902;}
	.st3{fill-rule:evenodd;clip-rule:evenodd;fill:#FDCC00;}
	.st4{fill-rule:evenodd;clip-rule:evenodd;fill:#FFFFFF;}
	.st5{fill-rule:evenodd;clip-rule:evenodd;fill:#0033A1;}
</style>
<g>
	<g>
		<defs>
			<rect id="SVGID_1_" x="15.3" y="2" width="110.2" height="91.4"/>
		</defs>
		<clipPath id="SVGID_2_">
			<use xlink:href="#SVGID_1_"  style="overflow:visible;"/>
		</clipPath>
		<polygon class="st0" points="35,33.7 34.1,34.1 33.2,34.6 32.4,35 31.6,35.5 30.8,35.9 30,36.3 29.3,36.8 28.7,37.2 28.1,37.6 
			27.5,37.9 27.3,38.1 27.1,38.2 26.9,38.4 26.7,38.5 26.5,38.6 26.4,38.7 26.2,38.8 26.1,38.9 26,38.9 26,39 26,39 25.9,39 26,39 
			26,39.1 26,39.2 26.1,39.2 26.1,39.3 26.2,39.5 26.3,39.6 26.5,39.8 26.6,40 26.7,40.2 26.9,40.5 27.1,40.7 27.2,41 27.4,41.3 
			27.9,41.9 28.3,42.6 28.8,43.3 29.4,44 30,44.7 30.6,45.5 31.2,46.3 31.8,47.1 32.5,47.8 31.8,48.6 31.2,49.3 30.6,50.1 30,50.9 
			29.4,51.6 28.8,52.3 28.4,53 27.9,53.7 27.5,54.3 27.3,54.6 27.1,54.9 26.9,55.1 26.7,55.4 26.6,55.6 26.5,55.8 26.3,56 
			26.3,56.1 26.2,56.3 26.1,56.4 26,56.5 26,56.5 26,56.6 26,56.6 26,56.6 26,56.6 26.1,56.7 26.1,56.7 26.3,56.8 26.4,56.9 
			26.5,57 26.7,57.1 26.9,57.2 27.1,57.4 27.3,57.5 27.6,57.7 28.1,58 28.7,58.4 29.4,58.8 30.1,59.2 30.8,59.7 31.6,60.1 
			32.4,60.6 33.3,61 34.1,61.5 35,61.9 34.7,62.8 34.4,63.7 34.1,64.7 33.9,65.6 33.7,66.4 33.4,67.3 33.2,68.1 33.1,68.8 
			32.9,69.5 32.8,70.2 32.7,70.4 32.6,70.7 32.6,70.9 32.6,71.2 32.5,71.4 32.5,71.6 32.5,71.7 32.5,71.8 32.4,71.9 32.4,72 
			32.4,72.1 32.4,72.1 32.4,72.1 32.5,72.1 32.5,72.1 32.6,72.1 32.8,72.2 32.9,72.2 33.1,72.2 33.3,72.3 33.6,72.3 33.9,72.4 
			34.1,72.4 34.4,72.5 34.7,72.5 35.1,72.6 35.8,72.8 36.6,72.9 37.5,73 38.4,73.1 39.3,73.3 40.3,73.4 41.2,73.5 42.3,73.6 
			43.3,73.6 43.3,74.6 43.4,75.6 43.5,76.6 43.6,77.6 43.8,78.5 43.9,79.4 44,80.3 44.2,81.1 44.3,81.8 44.4,82.1 44.4,82.5 
			44.5,82.8 44.6,83 44.6,83.3 44.7,83.5 44.7,83.7 44.7,83.9 44.8,84.1 44.8,84.2 44.8,84.3 44.9,84.4 44.9,84.4 44.9,84.5 
			44.9,84.5 44.9,84.4 45,84.4 45.1,84.4 45.2,84.4 45.4,84.4 45.6,84.3 45.8,84.3 46,84.3 46.2,84.2 46.5,84.1 46.8,84.1 
			47.4,83.9 48.1,83.8 48.8,83.6 49.7,83.4 50.5,83.2 51.4,83 52.3,82.7 53.2,82.4 54.1,82.1 55,81.8 55.5,82.7 55.9,83.6 
			56.4,84.4 56.8,85.2 57.3,86 57.7,86.7 58.1,87.4 58.6,88.1 58.9,88.7 59.3,89.2 59.4,89.5 59.6,89.7 59.7,89.9 59.8,90.1 
			60,90.3 60.1,90.4 60.2,90.6 60.2,90.7 60.3,90.8 60.3,90.8 60.4,90.8 60.4,90.9 60.4,90.8 60.4,90.8 60.5,90.8 60.6,90.7 
			60.7,90.7 60.8,90.6 61,90.4 61.2,90.3 61.4,90.2 61.6,90.1 61.8,89.9 62.1,89.7 62.4,89.5 62.6,89.4 63.3,88.9 63.9,88.5 
			64.6,88 65.3,87.4 66.1,86.8 66.9,86.2 67.6,85.6 68.4,85 69.1,84.3 69.9,85 70.7,85.6 71.4,86.2 72.2,86.8 73,87.4 73.7,87.9 
			74.4,88.4 75,88.9 75.6,89.3 76,89.5 76.2,89.7 76.5,89.9 76.7,90 76.9,90.2 77.1,90.3 77.3,90.4 77.5,90.5 77.6,90.6 77.7,90.7 
			77.8,90.8 77.9,90.8 77.9,90.8 77.9,90.8 78,90.8 78,90.8 78,90.7 78.1,90.6 78.2,90.5 78.3,90.4 78.4,90.2 78.5,90.1 78.6,89.9 
			78.7,89.7 78.9,89.4 79,89.2 79.4,88.7 79.8,88 80.2,87.4 80.6,86.7 81,85.9 81.5,85.1 81.9,84.3 82.4,83.5 82.8,82.6 83.2,81.8 
			84.2,82.1 85.1,82.4 86,82.7 86.9,82.9 87.8,83.1 88.6,83.4 89.4,83.5 90.2,83.7 90.9,83.9 91.5,84 91.8,84.1 92.1,84.1 
			92.3,84.2 92.5,84.2 92.7,84.3 92.9,84.3 93.1,84.3 93.2,84.3 93.3,84.4 93.4,84.4 93.4,84.4 93.4,84.4 93.4,84.4 93.4,84.3 
			93.5,84.2 93.5,84.1 93.5,84 93.5,83.8 93.6,83.6 93.6,83.4 93.7,83.2 93.7,82.9 93.8,82.7 93.9,82.3 93.9,82 94,81.7 94.1,81 
			94.2,80.2 94.4,79.3 94.5,78.4 94.6,77.5 94.8,76.5 94.8,75.5 94.9,74.5 95,73.5 96,73.4 97,73.4 98,73.3 99,73.1 99.9,73 
			100.8,72.9 101.6,72.7 102.4,72.6 103.2,72.5 103.5,72.4 103.8,72.3 104.1,72.3 104.4,72.2 104.7,72.2 104.9,72.1 105.1,72.1 
			105.3,72 105.5,72 105.6,72 105.7,72 105.8,71.9 105.8,71.9 105.8,71.9 105.8,71.9 105.8,71.8 105.8,71.8 105.8,71.7 105.8,71.6 
			105.8,71.4 105.7,71.2 105.7,71 105.6,70.8 105.6,70.6 105.5,70.3 105.5,70 105.3,69.4 105.2,68.7 105,67.9 104.8,67.1 
			104.6,66.3 104.3,65.4 104.1,64.5 103.8,63.6 103.5,62.7 103.2,61.8 104.1,61.3 104.9,60.9 105.8,60.4 106.6,60 107.4,59.5 
			108.1,59.1 108.8,58.6 109.5,58.2 110,57.9 110.6,57.5 110.8,57.4 111.1,57.2 111.3,57.1 111.4,56.9 111.6,56.8 111.8,56.7 
			111.9,56.6 112,56.6 112.1,56.5 112.1,56.5 112.2,56.4 112.2,56.4 112.2,56.4 112.2,56.4 112.1,56.3 112.1,56.2 112,56.1 
			111.9,56 111.8,55.8 111.7,55.6 111.6,55.4 111.4,55.2 111.3,55 111.1,54.7 110.9,54.4 110.7,54.1 110.3,53.5 109.8,52.9 
			109.3,52.2 108.8,51.4 108.2,50.7 107.6,49.9 106.9,49.2 106.3,48.4 105.6,47.6 106.3,46.9 106.9,46.1 107.6,45.3 108.2,44.6 
			108.7,43.8 109.3,43.1 109.8,42.4 110.3,41.7 110.7,41.1 110.9,40.8 111.1,40.6 111.2,40.3 111.4,40.1 111.5,39.9 111.7,39.6 
			111.8,39.5 111.9,39.3 112,39.2 112,39 112.1,39 112.1,38.9 112.2,38.8 112.2,38.8 112.2,38.8 112.1,38.8 112.1,38.7 112,38.7 
			111.9,38.6 111.8,38.5 111.6,38.4 111.4,38.3 111.2,38.2 111,38 110.8,37.9 110.6,37.7 110,37.4 109.4,37 108.8,36.6 108.1,36.2 
			107.3,35.8 106.5,35.3 105.7,34.8 104.9,34.4 104,33.9 103.1,33.5 103.4,32.6 103.7,31.7 104,30.8 104.3,29.9 104.5,29 
			104.7,28.1 104.9,27.4 105.1,26.6 105.2,25.9 105.4,25.3 105.4,25 105.5,24.7 105.5,24.5 105.6,24.2 105.6,24.1 105.6,23.9 
			105.7,23.7 105.7,23.6 105.7,23.5 105.7,23.4 105.7,23.4 105.7,23.4 105.7,23.4 105.7,23.4 105.6,23.3 105.5,23.3 105.4,23.3 
			105.2,23.2 105,23.2 104.8,23.2 104.6,23.1 104.3,23.1 104,23 103.7,22.9 103.4,22.9 103,22.8 102.3,22.7 101.5,22.5 100.7,22.4 
			99.8,22.3 98.8,22.2 97.9,22.1 96.9,22 95.9,21.9 94.9,21.8 94.8,20.8 94.7,19.8 94.6,18.8 94.5,17.9 94.4,16.9 94.2,16 
			94.1,15.2 94,14.4 93.8,13.6 93.8,13.3 93.7,13 93.7,12.7 93.6,12.4 93.5,12.1 93.5,11.9 93.4,11.7 93.4,11.5 93.4,11.3 
			93.3,11.2 93.3,11.1 93.3,11 93.3,11 93.3,11 93.3,11 93.2,11 93.2,11 93,11 92.9,11 92.8,11.1 92.6,11.1 92.4,11.1 92.1,11.2 
			91.9,11.2 91.6,11.3 91.4,11.3 90.7,11.5 90,11.6 89.3,11.8 88.5,12 87.6,12.2 86.8,12.5 85.9,12.7 85,13 84,13.3 83.1,13.6 
			82.7,12.7 82.2,11.9 81.8,11 81.3,10.2 80.9,9.4 80.4,8.7 80,8 79.6,7.3 79.2,6.7 78.9,6.2 78.7,6 78.6,5.7 78.4,5.5 78.3,5.3 
			78.2,5.2 78.1,5 78,4.9 77.9,4.8 77.9,4.7 77.8,4.6 77.8,4.6 77.8,4.6 77.8,4.6 77.7,4.6 77.6,4.7 77.6,4.7 77.4,4.8 77.3,4.9 
			77.2,5 77,5.1 76.8,5.2 76.5,5.4 76.3,5.5 76,5.7 75.8,5.9 75.5,6.1 74.9,6.5 74.2,7 73.5,7.5 72.8,8 72,8.6 71.3,9.2 70.5,9.8 
			69.7,10.5 69,11.2 68.3,10.5 67.5,9.8 66.7,9.2 65.9,8.6 65.2,8.1 64.5,7.5 63.7,7 63.1,6.5 62.5,6.1 62.2,5.9 61.9,5.7 61.7,5.6 
			61.4,5.4 61.2,5.3 61,5.1 60.8,5 60.7,4.9 60.5,4.8 60.4,4.8 60.3,4.7 60.2,4.7 60.2,4.6 60.2,4.6 60.2,4.6 60.2,4.7 60.1,4.7 
			60,4.8 60,4.9 59.9,5.1 59.8,5.2 59.7,5.4 59.5,5.6 59.4,5.8 59.3,6 59.1,6.2 58.8,6.8 58.4,7.4 58,8 57.6,8.8 57.1,9.5 
			56.7,10.3 56.2,11.1 55.8,11.9 55.3,12.8 54.9,13.7 54,13.4 53,13.1 52.1,12.8 51.2,12.5 50.4,12.3 49.5,12.1 48.7,11.9 48,11.7 
			47.2,11.6 46.6,11.4 46.3,11.4 46.1,11.3 45.8,11.3 45.6,11.2 45.4,11.2 45.2,11.2 45.1,11.1 44.9,11.1 44.8,11.1 44.8,11.1 
			44.7,11.1 44.7,11.1 44.7,11.1 44.7,11.1 44.7,11.2 44.7,11.3 44.6,11.4 44.6,11.6 44.6,11.8 44.5,12 44.5,12.2 44.4,12.5 
			44.4,12.8 44.3,13.1 44.2,13.4 44.2,13.7 44,14.5 43.9,15.3 43.8,16.1 43.6,17 43.5,18 43.4,18.9 43.3,19.9 43.2,20.9 43.2,21.9 
			42.1,22 41.1,22.1 40.2,22.2 39.2,22.3 38.3,22.4 37.4,22.5 36.5,22.7 35.7,22.8 35,23 34.6,23 34.3,23.1 34,23.1 33.8,23.2 
			33.5,23.3 33.3,23.3 33,23.4 32.8,23.4 32.7,23.4 32.6,23.5 32.5,23.5 32.4,23.5 32.3,23.5 32.3,23.5 32.3,23.5 32.3,23.6 
			32.3,23.6 32.3,23.7 32.4,23.9 32.4,24 32.4,24.2 32.5,24.4 32.5,24.6 32.6,24.9 32.6,25.1 32.7,25.4 32.8,26 33,26.8 33.2,27.5 
			33.3,28.3 33.6,29.2 33.8,30 34.1,30.9 34.4,31.8 34.6,32.8 35,33.7 		"/>
		<polygon class="st0" points="114.8,56.9 113.8,55.4 113.8,55.4 113.8,55.3 113.7,55.3 113.7,55.2 113.6,55.1 113.5,55 113.5,54.8 
			113.4,54.7 113.1,54.3 112.8,53.9 112.5,53.4 112.1,52.9 111.7,52.3 111.3,51.7 110.9,51.1 110.4,50.4 109.9,49.7 109.3,49 
			108.7,48.3 108.2,47.6 108.7,46.9 109.3,46.2 109.9,45.5 110.4,44.9 110.8,44.2 111.3,43.6 111.7,43 112.1,42.4 112.5,41.9 
			112.8,41.4 113.1,41 113.3,40.6 113.4,40.4 113.5,40.3 113.6,40.2 113.7,40.1 113.7,40 113.8,39.9 113.8,39.9 113.8,39.8 
			114.7,38.3 113.3,37.3 113.3,37.3 113.2,37.2 113.2,37.2 113.1,37.1 113,37.1 112.9,37 112.7,36.9 112.6,36.8 112.2,36.6 
			111.8,36.3 111.4,36 110.9,35.7 110.3,35.3 109.7,35 109.1,34.6 108.4,34.2 107.7,33.8 107,33.4 106.2,33 105.5,32.6 105.7,31.8 
			106,30.9 106.2,30.1 106.4,29.3 106.6,28.6 106.7,27.8 106.9,27.2 107,26.5 107.2,25.9 107.3,25.4 107.4,24.9 107.5,24.5 
			107.5,24.4 107.5,24.2 107.6,24.1 107.6,23.9 107.6,23.9 107.6,23.8 107.6,23.7 107.6,23.7 107.9,21.9 106.2,21.5 106.2,21.5 
			106.1,21.5 106,21.5 105.9,21.4 105.8,21.4 105.6,21.4 105.5,21.4 105.3,21.3 104.9,21.3 104.4,21.1 103.8,21 103.2,20.9 
			102.5,20.8 101.8,20.7 101,20.5 100.2,20.4 99.3,20.3 98.5,20.2 97.6,20.1 96.7,20 96.6,19.1 96.5,18.2 96.4,17.4 96.3,16.5 
			96.1,15.7 96,14.9 95.9,14.2 95.8,13.5 95.6,12.9 95.5,12.3 95.4,11.8 95.3,11.4 95.3,11.2 95.3,11.1 95.2,10.9 95.2,10.8 
			95.2,10.7 95.2,10.6 95.2,10.5 95.1,10.5 94.7,8.8 93,9.1 93,9.1 92.9,9.1 92.8,9.1 92.7,9.1 92.6,9.2 92.5,9.2 92.3,9.2 
			92.1,9.3 91.7,9.3 91.3,9.4 90.7,9.5 90.1,9.7 89.5,9.8 88.8,10 88.1,10.2 87.3,10.4 86.5,10.6 85.7,10.8 84.9,11.1 84.1,11.3 
			83.7,10.5 83.3,9.8 82.8,9 82.5,8.3 82,7.7 81.7,7 81.3,6.4 80.9,5.9 80.6,5.4 80.3,4.9 80,4.5 79.8,4.2 79.7,4.1 79.6,3.9 
			79.5,3.8 79.5,3.7 79.4,3.6 79.4,3.5 79.3,3.5 79.3,3.5 78.3,2 76.8,3 76.8,3 76.7,3 76.7,3.1 76.6,3.1 76.4,3.2 76.3,3.3 
			76.2,3.3 76,3.5 75.6,3.7 75.2,4 74.8,4.3 74.2,4.7 73.7,5.1 73.1,5.5 72.4,6 71.8,6.5 71.1,7 70.4,7.5 69.7,8.1 69,8.6 68.3,8.1 
			67.6,7.5 66.9,7 66.2,6.5 65.6,6 64.9,5.5 64.3,5.1 63.8,4.7 63.2,4.3 62.8,4 62.3,3.7 62,3.5 61.8,3.4 61.7,3.3 61.6,3.2 
			61.4,3.2 61.3,3.1 61.3,3.1 61.2,3 61.2,3 59.7,2.1 58.7,3.5 58.6,3.6 58.6,3.6 58.6,3.7 58.5,3.7 58.4,3.8 58.4,4 58.3,4.1 
			58.2,4.2 57.9,4.6 57.7,5 57.4,5.5 57.1,5.9 56.7,6.5 56.3,7.1 56,7.7 55.6,8.4 55.2,9.1 54.8,9.8 54.4,10.6 53.9,11.4 53.1,11.1 
			52.3,10.9 51.5,10.6 50.7,10.4 49.9,10.2 49.2,10.1 48.5,9.9 47.9,9.8 47.3,9.6 46.8,9.5 46.3,9.4 45.9,9.3 45.7,9.3 45.6,9.3 
			45.4,9.3 45.3,9.2 45.2,9.2 45.1,9.2 45.1,9.2 45,9.2 43.3,8.9 42.9,10.6 42.9,10.7 42.9,10.7 42.8,10.8 42.8,10.9 42.8,11 
			42.8,11.2 42.7,11.3 42.7,11.5 42.6,11.9 42.5,12.5 42.4,13 42.3,13.7 42.2,14.3 42,15.1 41.9,15.8 41.8,16.6 41.7,17.5 
			41.6,18.3 41.5,19.2 41.4,20.2 40.5,20.2 39.6,20.3 38.7,20.4 37.9,20.6 37.1,20.7 36.3,20.8 35.6,20.9 34.9,21.1 34.3,21.2 
			33.7,21.3 33.2,21.4 32.8,21.5 32.6,21.5 32.4,21.6 32.3,21.6 32.2,21.6 32.1,21.6 32,21.7 31.9,21.7 31.9,21.7 30.2,22.1 
			30.5,23.8 30.5,23.9 30.5,23.9 30.5,24 30.5,24 30.5,24.2 30.5,24.3 30.6,24.4 30.6,24.6 30.7,25 30.8,25.5 30.9,26 31,26.6 
			31.2,27.2 31.3,27.9 31.5,28.7 31.7,29.4 31.9,30.2 32.2,31.1 32.4,31.9 32.7,32.7 31.9,33.2 31.1,33.5 30.4,34 29.7,34.4 
			29,34.8 28.4,35.1 27.8,35.5 27.3,35.9 26.7,36.2 26.3,36.5 25.9,36.8 25.6,37 25.4,37.1 25.3,37.2 25.1,37.3 25.1,37.3 25,37.4 
			24.9,37.4 24.9,37.5 24.8,37.5 23.4,38.5 24.3,40 24.4,40 24.4,40.1 24.4,40.2 24.5,40.3 24.6,40.4 24.6,40.5 24.7,40.6 
			24.8,40.8 25.1,41.2 25.3,41.6 25.7,42.1 26,42.6 26.4,43.2 26.8,43.7 27.3,44.4 27.8,45 28.3,45.7 28.9,46.4 29.4,47.1 30,47.8 
			29.5,48.5 28.9,49.2 28.4,49.9 27.8,50.6 27.4,51.2 26.9,51.9 26.5,52.5 26.1,53 25.7,53.6 25.4,54.1 25.1,54.5 24.9,54.8 
			24.7,55 24.7,55.1 24.6,55.3 24.5,55.4 24.5,55.5 24.4,55.5 24.4,55.6 24.4,55.6 23.4,57.2 24.9,58.2 25,58.2 25.1,58.3 
			25.3,58.4 25.5,58.6 25.8,58.8 26.2,59 26.6,59.3 27.1,59.6 27.6,59.9 28.1,60.2 28.7,60.6 29.3,61 30,61.4 30.6,61.7 31.3,62.1 
			32.7,62.9 32.5,63.7 32.2,64.5 32,65.3 31.8,66.1 31.6,66.9 31.4,67.6 31.3,68.3 31.1,68.9 31,69.5 30.9,70 30.8,70.5 30.7,70.9 
			30.7,71.1 30.7,71.3 30.6,71.4 30.6,71.5 30.6,71.6 30.6,71.7 30.6,71.7 30.6,71.8 30.3,73.5 32,73.9 32,73.9 32.1,73.9 32.2,74 
			32.3,74 32.4,74 32.5,74.1 32.7,74.1 32.9,74.1 33.3,74.2 33.8,74.3 34.4,74.4 35,74.5 35.7,74.7 36.4,74.8 37.2,74.9 38,75 
			38.8,75.1 39.7,75.2 40.6,75.3 41.5,75.4 41.6,76.3 41.7,77.2 41.8,78.1 41.9,78.9 42,79.7 42.2,80.5 42.3,81.2 42.4,81.9 
			42.5,82.5 42.6,83.1 42.8,83.6 42.8,84 42.9,84.2 42.9,84.4 43,84.5 43,84.7 43,84.8 43,84.8 43,84.9 43,84.9 43.4,86.7 
			45.2,86.4 45.2,86.4 45.3,86.3 45.4,86.3 45.5,86.3 45.6,86.3 45.7,86.3 45.9,86.2 46.1,86.2 46.5,86.1 46.9,86 47.5,85.9 
			48.1,85.8 48.7,85.6 49.4,85.5 50.1,85.3 50.9,85.1 51.6,84.9 52.4,84.6 53.3,84.4 54.1,84.1 54.5,84.9 54.9,85.7 55.3,86.4 
			55.7,87.1 56.1,87.8 56.5,88.4 56.9,89 57.2,89.6 57.6,90.1 57.9,90.5 58.1,90.9 58.4,91.3 58.5,91.4 58.6,91.6 58.6,91.7 
			58.7,91.8 58.8,91.8 58.8,91.9 58.8,92 58.8,92 59.9,93.4 61.4,92.5 61.4,92.5 61.5,92.4 61.5,92.4 61.6,92.3 61.7,92.3 
			61.8,92.2 62,92.1 62.1,92 62.5,91.8 63,91.5 63.4,91.1 64,90.8 64.5,90.4 65.1,90 65.8,89.5 66.4,89 67.1,88.5 67.8,88 
			68.5,87.4 69.2,86.8 69.9,87.4 70.6,87.9 71.3,88.5 71.9,89 72.6,89.5 73.2,89.9 73.8,90.4 74.4,90.8 74.9,91.1 75.4,91.4 
			75.8,91.7 76.2,92 76.4,92.1 76.5,92.2 76.6,92.2 76.7,92.3 76.8,92.3 76.9,92.4 76.9,92.4 77,92.4 78.5,93.4 79.5,91.9 
			79.5,91.9 79.6,91.8 79.6,91.8 79.7,91.7 79.7,91.6 79.8,91.5 79.9,91.4 80,91.2 80.2,90.9 80.5,90.5 80.8,90 81.1,89.5 81.5,89 
			81.8,88.3 82.2,87.7 82.6,87.1 83,86.4 83.4,85.6 83.8,84.9 84.2,84.1 85.1,84.3 85.9,84.6 86.7,84.8 87.5,85 88.3,85.2 89,85.4 
			89.7,85.5 90.3,85.7 90.9,85.8 91.4,85.9 91.9,86 92.3,86.1 92.5,86.1 92.6,86.2 92.8,86.2 92.9,86.2 93,86.2 93,86.2 93.1,86.3 
			93.1,86.3 94.9,86.5 95.3,84.8 95.3,84.8 95.3,84.7 95.3,84.6 95.4,84.6 95.4,84.4 95.4,84.3 95.5,84.1 95.5,83.9 95.6,83.5 
			95.7,83 95.8,82.4 95.9,81.8 96,81.1 96.2,80.4 96.3,79.6 96.4,78.8 96.5,78 96.6,77.1 96.7,76.2 96.8,75.3 97.7,75.2 98.6,75.1 
			99.5,75 100.3,74.9 101.1,74.8 101.9,74.6 102.6,74.5 103.3,74.4 103.9,74.3 104.5,74.2 105,74.1 105.4,74 105.6,73.9 105.8,73.9 
			105.9,73.9 106,73.8 106.1,73.8 106.2,73.8 106.3,73.8 106.3,73.8 108,73.4 107.7,71.6 107.7,71.6 107.7,71.5 107.7,71.5 
			107.7,71.4 107.7,71.2 107.6,71.1 107.6,70.9 107.6,70.8 107.5,70.4 107.4,69.9 107.3,69.3 107.1,68.8 107,68.1 106.8,67.4 
			106.7,66.7 106.5,66 106.2,65.2 106,64.4 105.8,63.6 105.5,62.7 106.3,62.3 107,61.9 107.8,61.5 108.5,61.1 109.1,60.7 
			109.8,60.3 110.4,59.9 110.9,59.6 111.4,59.2 111.9,59 112.3,58.7 112.6,58.5 112.8,58.4 112.9,58.3 113,58.2 113.1,58.1 
			113.2,58.1 113.3,58 113.3,58 113.3,58 114.8,56.9 		"/>
	</g>
	<path class="st1" d="M112.2,56.4L112.2,56.4L112.2,56.4L112.2,56.4l-0.1-0.1l-0.1-0.1l-0.1-0.1l-0.1-0.1l-0.1-0.2l-0.1-0.2
		l-0.1-0.2l-0.2-0.2l-0.2-0.2l-0.2-0.2l-0.2-0.3l-0.2-0.3l-0.4-0.6l-0.5-0.7l-0.5-0.7l-0.5-0.7l-0.6-0.7l-0.6-0.8l-0.6-0.8l-0.6-0.8
		l-0.7-0.7l0.7-0.8l0.7-0.8l0.6-0.8l0.6-0.8l0.6-0.8l0.5-0.7l0.5-0.7l0.5-0.7l0.4-0.6l0.2-0.3l0.2-0.3l0.2-0.2l0.2-0.2l0.1-0.2
		l0.1-0.2l0.1-0.2l0.1-0.2l0.1-0.2L112,39l0.1-0.1l0-0.1l0,0l0,0l0,0l0,0l-0.1,0l-0.1,0l-0.1-0.1l-0.1-0.1l-0.2-0.1l-0.2-0.1
		l-0.2-0.1L111,38l-0.2-0.2l-0.3-0.2l-0.5-0.3l-0.6-0.4l-0.6-0.4l-0.7-0.4l-0.7-0.4l-0.8-0.5l-0.8-0.5l-0.8-0.4l-0.9-0.5l-0.9-0.4
		l0.3-0.9l0.3-0.9l0.3-0.9l0.3-0.9l0.2-0.9l0.2-0.9l0.2-0.8l0.2-0.7l0.2-0.7l0.1-0.6l0.1-0.3l0-0.3l0-0.2l0.1-0.2l0-0.2l0-0.2l0-0.2
		l0-0.1l0-0.1v-0.1l0,0v0h0h0l-0.1,0l-0.1,0l-0.1,0l-0.2,0l-0.2,0l-0.2,0l-0.2,0l-0.3,0L104,23l-0.3-0.1l-0.3-0.1l-0.4-0.1l-0.7-0.1
		l-0.8-0.2l-0.8-0.1l-0.9-0.1l-0.9-0.1l-1-0.1l-1-0.1l-1-0.1l-1-0.1l-0.1-1l-0.1-1l-0.1-1l-0.1-1l-0.1-0.9L94.2,16l-0.2-0.9L94,14.4
		l-0.1-0.7l-0.1-0.3L93.7,13l0-0.3l-0.1-0.3l-0.1-0.3l0-0.2l0-0.2l0-0.2l0-0.2l0-0.1l0-0.1l0-0.1V11l0,0h0h0l-0.1,0L93,11l-0.1,0
		l-0.2,0l-0.2,0l-0.2,0l-0.2,0.1l-0.2,0l-0.3,0.1l-0.3,0l-0.6,0.1L90,11.6l-0.7,0.2L88.5,12l-0.9,0.2l-0.9,0.2l-0.9,0.3L85,13
		L84,13.3l-0.9,0.3l-0.4-0.9l-0.4-0.9L81.8,11l-0.4-0.8l-0.5-0.8l-0.4-0.7L80,8l-0.4-0.7l-0.4-0.6l-0.3-0.5L78.7,6l-0.2-0.2
		l-0.2-0.2l-0.1-0.2l-0.1-0.2L78.1,5L78,4.9l-0.1-0.1l-0.1-0.1l0-0.1l0,0l0,0v0l0,0l-0.1,0l-0.1,0.1l-0.1,0.1l-0.1,0.1L77.2,5
		L77,5.1l-0.2,0.1l-0.2,0.2l-0.2,0.2l-0.2,0.2l-0.3,0.2l-0.3,0.2l-0.6,0.4L74.2,7l-0.7,0.5L72.8,8L72,8.6l-0.8,0.6l-0.8,0.6
		l-0.8,0.6L69,11.2l-0.7-0.7l-0.8-0.7l-0.8-0.6l-0.8-0.6l-0.7-0.6l-0.7-0.5L63.7,7l-0.6-0.5l-0.6-0.4l-0.3-0.2l-0.3-0.2l-0.3-0.2
		l-0.2-0.2l-0.2-0.1L61,5.1L60.8,5l-0.2-0.1l-0.1-0.1l-0.1-0.1l-0.1-0.1l-0.1,0l0,0l0,0v0l0,0l0,0.1L60,4.8L60,4.9l-0.1,0.1
		l-0.1,0.2l-0.1,0.2l-0.1,0.2l-0.1,0.2L59.3,6l-0.2,0.2l-0.4,0.5l-0.4,0.6L58,8l-0.4,0.7l-0.4,0.7l-0.4,0.8l-0.5,0.8l-0.5,0.9
		l-0.4,0.9l-0.4,0.9L54,13.4L53,13.1l-0.9-0.3l-0.9-0.2l-0.9-0.2l-0.9-0.2l-0.8-0.2L48,11.7l-0.7-0.2l-0.6-0.2l-0.3-0.1l-0.3,0
		l-0.2,0l-0.2,0l-0.2,0l-0.2,0l-0.2,0l-0.1,0h-0.1l-0.1,0h0h0l0,0v0l0,0.1l0,0.1l0,0.1l0,0.2l0,0.2l0,0.2l0,0.2l-0.1,0.3l0,0.3
		l-0.1,0.3l-0.1,0.3l-0.1,0.4L44,14.5l-0.2,0.8l-0.1,0.9L43.6,17L43.5,18l-0.1,1l-0.1,1l-0.1,1l-0.1,1l-1,0.1l-1,0.1l-1,0.1l-1,0.1
		l-0.9,0.1l-0.9,0.1l-0.9,0.2l-0.8,0.1L35,23L34.7,23l-0.3,0.1l-0.3,0l-0.3,0.1l-0.3,0.1l-0.2,0l-0.2,0l-0.2,0l-0.2,0l-0.1,0l-0.1,0
		l-0.1,0h-0.1l0,0v0v0l0,0.1v0.1l0,0.1l0,0.2l0,0.2l0,0.2l0.1,0.2l0,0.3l0,0.3l0.1,0.3l0.1,0.6l0.2,0.7l0.2,0.8l0.2,0.8l0.2,0.8
		l0.2,0.9l0.3,0.9l0.3,0.9l0.3,0.9l0.3,0.9l-0.9,0.4l-0.9,0.4L32.4,35l-0.8,0.4l-0.8,0.5L30,36.3l-0.7,0.4l-0.7,0.4l-0.6,0.4
		l-0.5,0.3l-0.2,0.2l-0.2,0.2l-0.2,0.2l-0.2,0.1l-0.2,0.1l-0.1,0.1l-0.1,0.1l-0.1,0.1L26,38.9L26,39l0,0l0,0h0l0,0l0,0.1l0.1,0.1
		l0,0.1l0.1,0.1l0.1,0.2l0.1,0.2l0.1,0.2l0.1,0.2l0.2,0.2l0.2,0.3l0.2,0.3l0.2,0.3l0.4,0.6l0.5,0.7l0.5,0.7l0.5,0.7l0.6,0.7l0.6,0.8
		l0.6,0.8l0.7,0.8l0.7,0.7l-0.7,0.8l-0.6,0.8l-0.6,0.8L30,50.9l-0.6,0.7l-0.5,0.7L28.4,53l-0.5,0.7l-0.4,0.6l-0.2,0.3l-0.2,0.3
		l-0.2,0.3l-0.2,0.2l-0.1,0.2l-0.2,0.2L26.4,56l-0.1,0.2l-0.1,0.1l-0.1,0.1L26,56.5l0,0.1l0,0l0,0h0l0,0l0,0l0.1,0.1l0.1,0.1
		l0.1,0.1l0.2,0.1l0.2,0.1l0.2,0.1l0.2,0.1l0.2,0.2l0.2,0.2l0.5,0.3l0.6,0.4l0.7,0.4l0.7,0.4l0.7,0.4l0.8,0.4l0.8,0.5l0.9,0.5
		l0.9,0.4l0.9,0.4l-0.3,0.9l-0.3,0.9l-0.3,0.9l-0.2,0.9l-0.2,0.9l-0.2,0.8l-0.2,0.8l-0.2,0.7l-0.2,0.7l-0.1,0.6l-0.1,0.3l-0.1,0.3
		l0,0.2l-0.1,0.2l0,0.2l0,0.2l0,0.2l0,0.1l0,0.1l0,0.1v0.1l0,0l0,0l0.1,0l0.1,0l0.1,0l0.1,0l0.2,0l0.2,0l0.2,0l0.2,0.1l0.3,0
		l0.3,0.1l0.3,0l0.3,0.1l0.3,0.1l0.7,0.2l0.8,0.1l0.9,0.2l0.9,0.1l0.9,0.1l1,0.1l1,0.1l1,0.1l1,0.1l0.1,1l0.1,1l0.1,1l0.1,1l0.1,0.9
		l0.1,0.9l0.2,0.9l0.1,0.8l0.2,0.7l0.1,0.4l0.1,0.3l0,0.3l0.1,0.3l0,0.3l0.1,0.2l0,0.2l0,0.2l0,0.2l0,0.2v0.1l0,0.1v0v0h0l0,0H45
		l0.1,0l0.1,0l0.2,0l0.2,0l0.2,0l0.2,0l0.2,0l0.3-0.1l0.3,0l0.6-0.2l0.7-0.2l0.7-0.2l0.8-0.2l0.8-0.2l0.9-0.2l0.9-0.3l0.9-0.3
		l0.9-0.3l0.9-0.3l0.4,0.9l0.4,0.9l0.5,0.8l0.5,0.8l0.4,0.8l0.5,0.7l0.4,0.7l0.4,0.7l0.4,0.6l0.4,0.5l0.2,0.2l0.2,0.2l0.1,0.2
		l0.1,0.2l0.1,0.2l0.1,0.2l0.1,0.1l0.1,0.1l0.1,0.1l0,0.1l0,0l0,0v0l0,0l0.1,0l0.1-0.1l0.1,0l0.1-0.1l0.2-0.1l0.2-0.1l0.2-0.1
		l0.2-0.2l0.2-0.2l0.2-0.2l0.3-0.2l0.3-0.2l0.6-0.4l0.7-0.5l0.7-0.5l0.7-0.6l0.7-0.6l0.8-0.6l0.8-0.6l0.8-0.7l0.8-0.7l0.7,0.7
		l0.8,0.7l0.8,0.6l0.8,0.6l0.7,0.6l0.7,0.5l0.7,0.5l0.7,0.5l0.6,0.4l0.3,0.2l0.3,0.2l0.2,0.2l0.2,0.2l0.2,0.2l0.2,0.1l0.2,0.1
		l0.2,0.1l0.1,0.1l0.1,0.1l0.1,0.1l0.1,0l0,0l0,0h0l0,0l0-0.1l0.1-0.1l0.1-0.1l0.1-0.1l0.1-0.2l0.1-0.2l0.1-0.2l0.1-0.2l0.2-0.2
		l0.2-0.2l0.3-0.5l0.4-0.6l0.4-0.7l0.4-0.7L81,86l0.4-0.8l0.5-0.8l0.5-0.9l0.4-0.9l0.4-0.9l0.9,0.3l0.9,0.3l0.9,0.3l0.9,0.2l0.9,0.2
		l0.9,0.2l0.8,0.2l0.7,0.2l0.7,0.2l0.6,0.1l0.3,0l0.3,0.1l0.2,0l0.2,0l0.2,0l0.2,0l0.2,0l0.1,0l0.1,0h0.1l0,0h0v0v0l0-0.1l0-0.1
		l0-0.2l0-0.2l0-0.2l0-0.2l0-0.2l0.1-0.3l0-0.3l0.1-0.3l0.1-0.3l0.1-0.4l0.1-0.7l0.1-0.8l0.1-0.9l0.1-0.9l0.1-0.9l0.1-1l0.1-1l0.1-1
		l0.1-1l1-0.1l1-0.1l1-0.1l1-0.1l0.9-0.1l0.9-0.1l0.8-0.1l0.8-0.1l0.7-0.1l0.4-0.1l0.3-0.1l0.3-0.1l0.3-0.1l0.3,0l0.2,0l0.2,0l0.2,0
		l0.2,0l0.2,0l0.1,0l0.1,0l0,0h0l0,0l0-0.1v0l0-0.1l0-0.1l0-0.2l0-0.2l0-0.2l0-0.2l-0.1-0.2l0-0.3l-0.1-0.3l-0.1-0.6l-0.2-0.7
		l-0.2-0.8l-0.2-0.8l-0.2-0.8l-0.2-0.9l-0.3-0.9l-0.3-0.9l-0.3-0.9l-0.3-0.9l0.9-0.4l0.9-0.4l0.9-0.5l0.8-0.5l0.8-0.5l0.7-0.4
		l0.7-0.4l0.7-0.4l0.6-0.4l0.5-0.4l0.2-0.2l0.2-0.2l0.2-0.1l0.2-0.1l0.2-0.1l0.2-0.1l0.1-0.1l0.1-0.1l0.1-0.1L112.2,56.4L112.2,56.4
		L112.2,56.4L112.2,56.4z M75.6,74.6l-1.4,0.3l-1.4,0.2l-1.4,0.2L70,75.4l-1.4,0l-1.4-0.1l-1.4-0.1L64.6,75l-1.3-0.2L62,74.4
		l-1.3-0.4l-1.2-0.4l-1.2-0.5L57,72.6L55.8,72l-1.1-0.7l-1.1-0.7l-1.1-0.8L51.4,69l-1-0.9l-1-0.9l-0.9-1l-0.9-1l-0.8-1.1l-0.8-1.1
		l-0.7-1.2l-0.7-1.2L44,59.5l-0.6-1.3L43,56.9l-0.4-1.3l-0.4-1.4l-0.3-1.4l-0.2-1.4L41.5,50l-0.1-1.4v-1.4l0-1.4l0.1-1.4l0.2-1.3
		l0.2-1.3l0.3-1.3l0.4-1.3l0.4-1.3l0.5-1.2l0.6-1.2l0.6-1.2l0.7-1.1l0.7-1.1l0.8-1.1l0.8-1.1l0.9-1l0.9-1l1-0.9l1-0.9l1.1-0.8
		l1.1-0.8l1.2-0.7l1.2-0.7l1.2-0.6l1.3-0.6l1.3-0.5l1.3-0.4l1.4-0.4l0.8-0.2l0.8-0.2l0.8-0.1l0.8-0.1l0.8-0.1l0.8,0l0.8,0l0.8,0
		l1.2,0l1.2,0.1l1.2,0.1l1.1,0.2l1.1,0.2l1.1,0.2l1.1,0.3l1.1,0.4l1.1,0.4l1.1,0.4l1,0.5l1,0.5l1,0.6l0.9,0.6l1,0.6l0.9,0.7l0.9,0.7
		l0.9,0.7l0.8,0.8l0.8,0.8l0.8,0.9l0.7,0.9l0.7,0.9l0.6,0.9l0.6,1l0.6,1l0.5,1l0.5,1.1l0.4,1.1l0.4,1.1l0.4,1.1l0.3,1.2l0.3,1.4
		l0.2,1.4l0.2,1.4l0.1,1.4l0,1.4l0,1.4l-0.1,1.4l-0.2,1.3l-0.2,1.3l-0.3,1.3l-0.4,1.3L95,57.4l-0.5,1.2l-0.6,1.2L93.4,61l-0.7,1.2
		L92,63.2l-0.8,1.1l-0.8,1.1l-0.9,1l-0.9,1l-1,0.9l-1,0.9l-1.1,0.8l-1.1,0.8l-1.2,0.7l-1.2,0.7l-1.2,0.6l-1.3,0.6l-1.3,0.5l-1.4,0.4
		L75.6,74.6L75.6,74.6z"/>
	<polygon class="st2" points="93.7,64.9 93.4,64.6 93.1,64.2 92.8,63.9 92.6,63.6 93,63.7 93.4,63.8 93.8,63.9 94.3,64 94.7,64.1 
		95.2,64.1 95.7,64.1 96.2,64.1 96.7,64 97.2,63.9 97.8,63.8 98.4,63.6 99,63.5 99.5,63.3 100.2,63.1 100.7,62.9 102,62.3 
		103.2,61.8 102.7,60.5 102.2,59.3 101.9,58.7 101.6,58.2 101.4,57.6 101.1,57.1 100.8,56.6 100.5,56.1 100.2,55.7 99.8,55.2 
		99.5,54.8 99.1,54.5 98.8,54.2 98.4,53.9 98,53.7 97.6,53.4 97.3,53.2 96.9,53.1 97.3,53 97.7,53 98.2,52.9 98.6,52.8 99.1,52.7 
		99.5,52.6 99.9,52.4 100.3,52.2 100.8,51.9 101.2,51.7 101.7,51.4 102.1,51 102.5,50.7 103,50.3 103.9,49.5 104.8,48.6 105.6,47.7 
		104.8,46.7 103.9,45.9 103,45 102.5,44.7 102.1,44.3 101.6,44 101.2,43.7 100.7,43.4 100.3,43.1 99.9,42.9 99.5,42.7 99,42.6 
		98.6,42.5 98.1,42.4 97.7,42.3 97.3,42.3 96.9,42.3 97.2,42.1 97.6,41.9 98,41.7 98.4,41.4 98.8,41.1 99.1,40.8 99.5,40.5 
		99.8,40.1 100.1,39.7 100.4,39.2 100.7,38.8 101,38.3 101.3,37.7 101.6,37.2 101.9,36.6 102.1,36 102.7,34.8 103.1,33.5 
		102.1,33.1 101.1,32.7 100,32.3 99,31.9 98.1,31.6 97.6,31.5 97.1,31.4 96.7,31.4 96.2,31.3 95.8,31.3 95.4,31.3 94.8,31.3 
		94.5,31.3 94.2,31.4 93.7,31.5 93.3,31.6 92.9,31.7 92.5,31.8 92.8,31.5 93.1,31.2 93.3,30.8 93.6,30.4 93.8,30.1 94,29.7 
		94.2,29.2 94.3,28.8 94.5,28.3 94.6,27.8 94.7,27.2 94.8,26.7 94.8,26.1 94.9,25.5 94.9,24.3 94.9,23.1 94.9,21.8 93.6,21.8 
		92.3,21.8 91.2,21.8 90.6,21.9 90,22 89.4,22 88.9,22.1 88.4,22.3 87.9,22.4 87.5,22.5 87,22.7 86.6,22.9 86.3,23.1 85.9,23.4 
		85.5,23.7 85.2,23.9 84.9,24.2 85,23.8 85.1,23.4 85.2,23 85.3,22.5 85.4,22.1 85.5,21.6 85.5,21.1 85.4,20.6 85.3,20.1 85.3,19.5 
		85.1,19 85,18.4 84.8,17.8 84.6,17.2 84.4,16.7 84.2,16 83.7,14.8 83.1,13.6 81.9,14.1 80.7,14.6 80.1,14.9 79.5,15.1 79,15.4 
		78.4,15.7 77.9,16 77.4,16.3 77,16.6 76.6,17 76.2,17.3 75.8,17.7 75.5,18 75.3,18.4 75,18.8 74.8,19.2 74.6,19.5 74.4,19.9 
		74.4,19.5 74.3,19.1 74.3,18.6 74.2,18.2 74.1,17.7 73.9,17.3 73.7,16.9 73.5,16.5 73.3,16 73,15.6 72.7,15.1 72.4,14.7 72,14.2 
		71.6,13.8 70.8,12.9 69.9,12 69,11.2 68.1,12.1 67.2,12.9 66.4,13.8 66,14.3 65.6,14.7 65.3,15.2 65,15.6 64.7,16 64.5,16.5 
		64.3,16.9 64.1,17.4 63.9,17.8 63.8,18.2 63.7,18.6 63.7,19.1 63.6,19.5 63.6,19.9 63.4,19.6 63.2,19.2 63,18.8 62.7,18.4 62.5,18 
		62.2,17.7 61.8,17.3 61.4,17 61,16.7 60.6,16.3 60.1,16 59.6,15.8 59.1,15.5 58.5,15.2 57.9,14.9 57.4,14.6 56.1,14.2 54.9,13.7 
		54.3,14.9 53.8,16.1 53.6,16.7 53.4,17.3 53.2,17.9 53,18.5 52.9,19 52.8,19.6 52.7,20.2 52.6,20.7 52.6,21.2 52.6,21.7 52.6,22.1 
		52.7,22.6 52.8,23 52.9,23.5 53,23.9 53.2,24.3 52.8,24 52.5,23.7 52.1,23.5 51.8,23.2 51.5,23 51.1,22.9 50.8,22.7 50.5,22.6 
		50.1,22.5 49.7,22.3 49.3,22.3 48.9,22.2 48,22 47,21.9 46.1,21.9 45.1,21.9 44.1,21.9 43.2,21.9 43.1,23.2 43.1,24.4 43.2,25.6 
		43.2,26.2 43.3,26.8 43.4,27.4 43.5,27.9 43.6,28.4 43.7,28.9 43.9,29.3 44,29.8 44.3,30.2 44.5,30.6 44.7,30.9 45,31.3 45.3,31.6 
		45.5,31.9 45.2,31.8 44.7,31.7 44.3,31.6 43.9,31.5 43.4,31.4 43,31.4 42.5,31.4 42,31.4 41.4,31.5 40.9,31.6 40.3,31.7 39.8,31.8 
		39.2,32 38.6,32.2 38,32.4 37.4,32.6 36.2,33.2 35,33.7 35.4,34.9 36,36.2 36.2,36.7 36.5,37.3 36.8,37.9 37.1,38.4 37.4,38.9 
		37.7,39.4 38,39.8 38.3,40.2 38.6,40.6 39,41 39.3,41.3 39.7,41.5 40.1,41.8 40.5,42 40.9,42.2 41.2,42.4 40.8,42.4 40.4,42.5 
		40,42.5 39.5,42.6 39.1,42.7 38.6,42.9 38.2,43.1 37.8,43.3 37.4,43.5 36.9,43.8 36.5,44.1 36,44.4 35.6,44.8 35.1,45.2 34.2,46 
		33.4,46.9 32.5,47.8 33.4,48.7 34.3,49.6 35.1,50.4 35.6,50.8 36,51.2 36.5,51.5 36.9,51.8 37.4,52.1 37.8,52.3 38.2,52.5 
		38.7,52.7 39.1,52.8 39.5,53 40,53 40.4,53.1 40.9,53.2 41.2,53.2 40.9,53.4 40.5,53.6 40.1,53.8 39.7,54.1 39.4,54.3 39,54.6 
		38.7,55 38.3,55.4 38,55.8 37.7,56.2 37.4,56.7 37.1,57.2 36.8,57.8 36.5,58.3 36.3,58.9 36,59.5 35.5,60.7 35,61.9 36.2,62.5 
		37.5,63 38.1,63.2 38.7,63.4 39.2,63.6 39.8,63.8 40.4,63.9 40.9,64 41.5,64.1 42,64.2 42.5,64.2 43,64.2 43.5,64.2 43.9,64.1 
		44.4,64 44.8,63.9 45.2,63.8 45.6,63.6 45.3,63.9 45.1,64.3 44.8,64.6 44.6,65 44.3,65.4 44.1,65.8 44,66.2 43.8,66.7 43.7,67.2 
		43.5,67.7 43.5,68.2 43.4,68.8 43.3,69.3 43.3,69.9 43.2,71.1 43.2,72.4 43.3,73.7 44.5,73.7 45.8,73.7 47,73.6 47.6,73.6 
		48.1,73.5 48.7,73.4 49.2,73.3 49.7,73.2 50.2,73.1 50.7,72.9 51.1,72.8 51.5,72.5 51.9,72.3 52.3,72.1 52.6,71.8 53,71.5 
		53.3,71.3 53.1,71.6 53,72.1 52.9,72.5 52.8,73 52.7,73.4 52.7,73.9 52.7,74.4 52.7,74.9 52.8,75.4 52.9,75.9 53,76.5 53.2,77.1 
		53.3,77.6 53.5,78.2 53.7,78.8 54,79.4 54.5,80.6 55,81.8 56.3,81.4 57.5,80.9 58.1,80.6 58.6,80.3 59.2,80.1 59.7,79.8 60.2,79.5 
		60.7,79.2 61.1,78.8 61.6,78.5 61.9,78.2 62.3,77.8 62.6,77.4 62.9,77.1 63.1,76.7 63.3,76.3 63.5,75.9 63.7,75.6 63.7,76 
		63.8,76.4 63.9,76.9 64,77.3 64,77.7 64.2,78.1 64.4,78.6 64.6,79 64.9,79.4 65.1,79.9 65.4,80.3 65.8,80.8 66.1,81.2 66.5,81.7 
		67.3,82.6 68.2,83.4 69.1,84.3 70.1,83.4 70.9,82.5 71.8,81.6 72.1,81.2 72.5,80.8 72.8,80.3 73.2,79.9 73.4,79.4 73.7,79 
		73.9,78.6 74,78.1 74.2,77.7 74.3,77.3 74.4,76.8 74.4,76.4 74.5,76 74.5,75.5 74.7,75.9 74.9,76.3 75.1,76.7 75.4,77.1 75.7,77.4 
		76,77.8 76.3,78.1 76.7,78.5 77.1,78.8 77.6,79.1 78.1,79.4 78.6,79.7 79.1,80 79.6,80.3 80.2,80.6 80.8,80.8 82,81.3 83.2,81.8 
		83.8,80.6 84.3,79.4 84.5,78.8 84.8,78.1 84.9,77.6 85.1,77 85.3,76.4 85.4,75.8 85.5,75.3 85.5,74.8 85.6,74.3 85.6,73.8 
		85.5,73.3 85.5,72.9 85.3,72.4 85.2,72 85.1,71.6 85,71.2 85.3,71.5 85.6,71.7 86,72 86.4,72.3 86.7,72.5 87.1,72.7 87.6,72.9 
		88,73 88.5,73.1 89,73.3 89.5,73.4 90.1,73.4 90.7,73.5 91.3,73.6 92.5,73.6 93.7,73.6 95,73.6 95,72.3 95,71 94.9,69.8 94.9,69.2 
		94.8,68.7 94.8,68.1 94.7,67.6 94.5,67.1 94.4,66.6 94.2,66.1 94.1,65.7 93.9,65.3 93.7,64.9 	"/>
	<polygon class="st3" points="62.6,20.8 61.2,21.2 59.8,21.6 58.5,22.1 57.3,22.7 56.1,23.3 54.9,24 53.7,24.7 52.6,25.5 51.6,26.3 
		50.5,27.2 49.6,28.1 48.6,29.1 47.8,30.1 47,31.1 46.2,32.2 45.5,33.3 44.8,34.5 44.2,35.6 43.6,36.9 43.2,38.1 42.7,39.3 
		42.3,40.6 42,41.9 41.8,43.2 41.6,44.6 41.5,45.9 41.4,47.3 41.4,48.7 41.5,50 41.7,51.4 41.9,52.8 42.2,54.2 42.6,55.6 43,56.9 
		43.5,58.2 44,59.5 44.7,60.7 45.3,61.9 46.1,63.1 46.8,64.2 47.7,65.2 48.5,66.3 49.5,67.2 50.4,68.1 51.4,69 52.5,69.9 53.5,70.6 
		54.6,71.3 55.8,72 57,72.6 58.2,73.2 59.4,73.7 60.7,74.1 62,74.5 63.3,74.8 64.6,75 65.9,75.2 67.3,75.3 68.6,75.4 70,75.4 
		71.4,75.3 72.8,75.1 74.2,74.9 75.6,74.6 76.9,74.3 78.3,73.8 79.6,73.3 80.9,72.8 82.1,72.2 83.3,71.5 84.4,70.7 85.5,70 
		86.6,69.2 87.6,68.3 88.6,67.4 89.5,66.4 90.4,65.4 91.2,64.3 92,63.3 92.7,62.1 93.4,61 93.9,59.8 94.5,58.6 95,57.4 95.4,56.1 
		95.8,54.8 96.1,53.5 96.4,52.2 96.6,50.9 96.7,49.5 96.7,48.2 96.7,46.8 96.6,45.4 96.5,44 96.3,42.6 96,41.2 95.6,40 95.3,38.9 
		94.9,37.8 94.4,36.7 93.9,35.6 93.4,34.6 92.8,33.5 92.2,32.6 91.6,31.6 90.9,30.7 90.1,29.8 89.4,29 88.6,28.1 87.8,27.4 
		86.9,26.6 86,25.9 85.1,25.2 84.2,24.6 83.2,24 82.2,23.4 81.2,22.9 80.2,22.4 79.1,22 78.1,21.6 77,21.2 75.9,20.9 74.8,20.7 
		73.7,20.5 72.5,20.3 71.4,20.2 70.2,20.1 69.1,20.1 68.3,20.1 67.4,20.1 66.6,20.2 65.8,20.3 65,20.4 64.2,20.5 63.4,20.7 
		62.6,20.8 	"/>
	<path class="st4" d="M114.3,37c-2.8,0-5.2,0.7-7.1,2.5c-1.4-1.9-2.9-2.6-5.3-2.6c-1.8,0-3.5,1.1-4.5,2.1c-1-1-2.4-2.1-4.3-2.1
		c-2.4,0-4.4,1.1-5.2,2.7c-0.1-0.2-0.3-0.3-0.4-0.5c0,0-0.1-0.1-0.1-0.1c0,0-0.1-0.1-0.1-0.1c-0.9-0.9-2.2-1.5-3.9-1.8
		c-0.7-0.2-1.5-0.2-2.3-0.2c-2.7,0-5.1,0.9-6.4,2.3c-1.1-1.2-3-2-5.3-2.3c-1.8-0.1-6.3,0.2-7.7,4.7v0v0c-1.3-4-5-4.6-7-4.7h0
		c-2.7,0.1-5,1-6.3,2.4c-1.3-1.4-3.7-2.4-6.5-2.3c-3,0-5.6,1.1-6.8,2.6c-0.9-1.4-2.8-2.6-4.9-2.6c-1.8,0-3.7,1.2-4.7,2.2
		c-1.1-1-2.5-2.1-4.4-2.1c-3.1,0-5.7,1.9-5.8,4.1c0,0,0,0,0,0v12.5c0,0.5,0.5,2.2,1,2.7c0.9,1.4,2.9,2.3,5.2,2.3
		c1.9,0,3.6-1.1,4.7-2.1c1,1,2.6,2.1,4.4,2.1c2.1,0,3.9-0.8,4.8-2.1c1.4,1.3,3.9,2,6.9,2.1c2.8,0.1,4.9-0.9,6.4-1.9
		c1,1,2.6,1.9,4.3,1.9c1.7,0,3-1,4-1.9c1,0.9,2.8,1.9,4.5,1.9c1.9,0,3.5-0.7,4.5-1.8c1,1.1,2.6,1.8,4.5,1.8c1.8,0,3.6-0.9,4.6-1.9
		c1.5,1.1,3.8,2,6.6,2c2.9,0,5.3-0.8,6.7-2c1,1.1,2.9,1.9,4.8,1.9c1.9,0,3.6-0.8,4.6-1.9c0.9,1.1,2.9,2,4.7,2c2.2,0,3.1-0.5,5.1-2.1
		c1.9,1.7,3.9,2,6.6,2c6,0,10.8-4.9,10.8-10.9C125.1,41.9,120.3,37,114.3,37L114.3,37L114.3,37z"/>
	<path class="st5" d="M73.6,53c-0.4-5.7-1.1-12.6-1.1-12.6s-0.7-0.1-0.7-0.1c-2.6-0.2-4.5,0.2-5.8,1.4c-0.8,0.8-2.1,3.2-2.1,3.2
		l-2.2,4.3L59.6,45c0,0-1.2-2.3-2.1-3.2c-1.2-1.2-3.2-1.6-5.8-1.4c0,0-0.7,0.1-0.7,0.1l-0.9,15c0,0,1.7,0.1,2.5,0
		c0.8-0.1,1.5-0.4,2-0.9c0.5-0.5,0.7-1.3,0.7-2.3c0-0.5,0.2-5.2,0.2-5.2l4.6,8.5c0,0,1.1,0,1.7,0c1.3-0.1,2.1-1,2.6-1.9
		c0.6-1,3.5-7,3.5-7s0.5,6.8,0.6,8.8c0.8,0,1.5,0,2.1,0C72.3,55.4,73.9,54.7,73.6,53L73.6,53L73.6,53z"/>
	<path class="st5" d="M121.6,50.7L121.6,50.7c0.3-1,0.5-2.1,0.5-3.4c-0.2-2.4-1.1-4.1-2.5-5.3c-1.4-1.2-3.2-2-5.8-1.9
		c-0.5,0.1-1.2,0.2-1.7,0.3c-2.9,0.8-4.9,3-5.4,6.2c-0.5,3.2,0.6,5.6,2.4,7c1.4,1.2,3.3,2,5.8,1.8C118.4,55.3,120.7,53.6,121.6,50.7
		L121.6,50.7L121.6,50.7z M111.6,47c0.1-1,0.5-1.8,1.1-2.3c0.3-0.3,0.8-0.6,1.4-0.6c2.3-0.1,3.2,2.3,3,4.7c-0.2,1.4-1,2.7-2.5,2.8
		c-0.5,0-1.3-0.1-1.7-0.4C111.8,50.5,111.4,48.7,111.6,47L111.6,47L111.6,47z"/>
	<path class="st5" d="M47.8,43.9L47.8,43.9c-0.9-2.3-3-3.9-6.4-3.7c-1.4,0.1-2.6,0.2-3.6,0.7c-1,0.4-1.8,1.3-2.1,2.4
		c-0.2,0.6-0.1,1.5-0.1,2.4c0.3-0.1,0.4-0.3,0.7-0.5c1.1-0.8,2.7-1.2,4.7-1.1c1.5,0.1,2.7,0.3,2.5,2.1c-3.9,0-7.4,0.4-8.3,3.5
		c-0.5,2.1,0.4,3.8,1.6,4.7c1,0.7,2.2,1.1,3.7,1.2c0.4,0,0.9,0,1.3,0l0,0c0,0,3,0,3.6-0.1c1.4-0.1,3-0.8,2.8-2.4c0-2.1,0-3.5,0-4.5
		c0-0.1,0-0.1,0-0.2c0-0.5,0-1.1,0-1.6c0-0.2,0-0.3,0-0.3v0C48.2,45.6,48.1,44.7,47.8,43.9L47.8,43.9L47.8,43.9z M40.4,49.6
		c0.8-0.5,1.9-0.3,3.1-0.4c0,1,0.1,2.1-0.4,2.5c-0.3,0.3-0.9,0.4-1.5,0.4c-0.6,0-1.3-0.2-1.6-0.6C39.6,50.9,39.9,50,40.4,49.6
		L40.4,49.6L40.4,49.6z"/>
	<path class="st5" d="M85.8,55.5L85.8,55.5c1.4-0.1,3-0.8,2.8-2.4c0-2,0-3.5,0-4.5c0-0.1,0-0.2,0-0.2c0-0.6,0-1.1,0-1.6
		c0-0.2,0-0.3,0-0.3l0,0c0-1-0.1-1.9-0.4-2.6c-0.9-2.3-3-3.9-6.4-3.7c-1.4,0.1-2.6,0.2-3.6,0.7c-1,0.4-1.8,1.3-2.1,2.4
		c-0.2,0.7-0.1,1.5-0.1,2.4c0.3-0.1,0.4-0.3,0.7-0.5c1.1-0.8,2.7-1.2,4.7-1.1c1.5,0.1,2.7,0.3,2.5,2.1c-3.9,0-7.4,0.4-8.3,3.5
		c-0.5,2.1,0.4,3.8,1.6,4.7c1,0.7,2.2,1.1,3.7,1.2c0.4,0,0.9,0,1.3,0h0C82.1,55.5,85.2,55.5,85.8,55.5L85.8,55.5L85.8,55.5z
		 M80.7,49.6c0.8-0.5,1.9-0.4,3.1-0.4c0,1,0.1,2.1-0.3,2.5C83.1,52,82.6,52,81.9,52c-0.6,0-1.3-0.2-1.6-0.5
		C79.9,50.8,80.2,49.9,80.7,49.6L80.7,49.6L80.7,49.6z"/>
	<path class="st5" d="M31.4,44.9c-1.2,1.2-3,3-3,3l5.4,5.3c0,0-1,1.1-1.4,1.5c-1,1-2.6,1.2-3.9-0.2c-1.4-1.4-3.8-3.7-3.8-3.7
		c-0.8-0.8-1.4-1.4-1.6-2l0,6.7c0,0-1.4,0-2,0c-1.5-0.1-3-0.8-2.8-2.4c0-5.4,0-12.6,0-12.6s0.6-0.1,0.6-0.1c4.3,0,4.2,2.2,4.2,3.6
		c0,0.5,0,1.9,0,3.6c0.2-0.6,0.7-1.2,1.6-2c1.1-1.1,4.8-4.8,5.4-5.4c0.5,0.5,1.4,1.4,1.4,1.4C32.4,42.6,32.5,43.8,31.4,44.9
		L31.4,44.9L31.4,44.9z"/>
	<path class="st5" d="M103.9,44.8c-1.2,1.2-3,3-3,3l5.4,5.4c0,0-1,1-1.4,1.5c-1.1,1.1-2.6,1.2-4-0.2c-1.4-1.4-3.8-3.8-3.8-3.8
		c-0.9-0.9-1.4-1.5-1.6-2.1v6.7c0,0-1.4,0-2,0c-1.5-0.1-3-0.8-2.9-2.4c0-5.4,0-12.7,0-12.7s0.6-0.1,0.6-0.1c4.4,0,4.2,2.2,4.2,3.6
		c0,0.5,0,1.9,0,3.6c0.2-0.6,0.7-1.2,1.6-2c1.2-1.2,4.9-4.9,5.4-5.4c0.5,0.5,1.4,1.4,1.4,1.4C104.9,42.4,105,43.7,103.9,44.8
		L103.9,44.8L103.9,44.8z"/>
	<path class="st5" d="M121.8,42L121.8,42c0-1.1,0.8-1.9,1.9-1.9c1.1,0,1.9,0.8,1.9,1.9c0,1.1-0.9,1.9-1.9,1.9
		C122.7,43.8,121.8,43,121.8,42L121.8,42L121.8,42z M125.2,42L125.2,42c0,0.9-0.7,1.6-1.5,1.6c-0.9,0-1.5-0.6-1.5-1.6
		c0-0.9,0.6-1.6,1.5-1.6C124.6,40.4,125.2,41.1,125.2,42L125.2,42L125.2,42z M123.7,41L123.7,41c0.4,0,0.7,0.2,0.7,0.5v0
		c0,0.3-0.2,0.4-0.4,0.5l0.5,0.8h-0.4l-0.4-0.7h-0.2v0.7h-0.4V41H123.7L123.7,41z M124,41.6L124,41.6c0-0.2-0.1-0.3-0.3-0.3h-0.2
		v0.5h0.2C123.9,41.9,124,41.8,124,41.6L124,41.6L124,41.6z"/>
</g>
</svg>
