<svg width="142" height="95" viewBox="0 0 142 95" fill="none" xmlns="http://www.w3.org/2000/svg">
<g clip-path="url(#clip0_11352_1969)">
<path d="M14 87.4999C22.4 78.8999 35.3 73.0999 85.5 79.6999C112.2 83.1999 143.7 69.9999 131.7 20.7999C119.7 29.6999 101.2 2.7999 79.1 23.4999C31.9 -21.4001 -27.5 37.5999 14 87.4999Z" fill="#D9213C"/>
<path d="M94.8999 58.3999H97.1999C98.0999 58.3999 98.7999 57.6999 98.7999 56.7999V31.9999C98.7999 31.0999 98.0999 30.3999 97.1999 30.3999H94.7999C93.8999 30.3999 93.1999 31.0999 93.1999 31.9999V56.7999C93.2999 57.6999 93.9999 58.3999 94.8999 58.3999ZM102.8 34.6999H119.1C119.9 34.6999 120.5 34.0999 120.5 33.3999V31.3999C120.5 30.6999 119.9 29.9999 119.1 30.0999C119.1 30.0999 103.4 31.5999 102.8 31.6999C102.2 31.7999 101.9 32.1999 101.9 32.6999V33.8999C101.9 34.2999 102.3 34.6999 102.8 34.6999ZM80.8999 41.9999H81.9999V51.8999C81.9999 55.2999 84.4999 58.3999 88.5999 58.3999H90.6999C91.3999 58.3999 91.8999 57.8999 91.8999 57.1999V55.3999C91.8999 54.6999 91.2999 54.1999 90.6999 54.1999H90.3999C88.4999 54.1999 87.3999 52.9999 87.3999 51.1999V41.9999H90.9999C91.5999 41.9999 92.0999 41.4999 92.0999 40.8999V39.1999C92.0999 38.5999 91.5999 38.0999 90.9999 38.0999H87.3999V31.9999C87.3999 31.0999 86.6999 30.3999 85.7999 30.3999H83.4999C82.6999 30.3999 81.9999 31.0999 81.9999 31.9999V38.0999H80.7999C80.1999 38.0999 79.6999 38.5999 79.6999 39.1999V40.8999C79.7999 41.4999 80.2999 41.9999 80.8999 41.9999ZM60.8999 47.8999C60.8999 42.5999 57.7999 37.2999 50.6999 37.2999C44.0999 37.2999 40.4999 42.3999 40.4999 47.8999C40.4999 53.6999 44.3999 58.6999 50.7999 58.6999C55.0999 58.6999 59.3999 56.3999 60.1999 52.6999C60.2999 52.1999 59.9999 51.4999 59.1999 51.4999H56.0999C55.4999 51.4999 55.0999 51.7999 54.7999 52.1999C53.8999 53.4999 52.5999 54.1999 50.6999 54.1999C47.9999 54.1999 46.0999 51.9999 45.9999 49.6999H59.1999C60.2999 49.6999 60.8999 48.9999 60.8999 47.8999ZM45.8999 45.5999C46.0999 43.2999 48.0999 41.5999 50.5999 41.5999C52.9999 41.5999 55.0999 43.2999 55.2999 45.5999H45.8999ZM110.8 37.3999C104.2 37.3999 100.5 42.4999 100.5 47.9999C100.5 53.7999 104.4 58.7999 110.8 58.7999C115.1 58.7999 119.4 56.4999 120.2 52.7999C120.3 52.2999 120 51.5999 119.2 51.5999H116.1C115.5 51.5999 115.1 51.8999 114.8 52.2999C113.9 53.5999 112.6 54.2999 110.7 54.2999C108 54.2999 106.1 52.0999 105.9 49.7999H119.1C120.3 49.7999 120.9 49.0999 120.9 47.9999C121 42.5999 117.9 37.3999 110.8 37.3999ZM106.1 45.5999C106.3 43.2999 108.4 41.5999 110.8 41.5999C113.2 41.5999 115.3 43.2999 115.5 45.5999H106.1ZM17.2999 58.3999H19.5999C20.4999 58.3999 21.2999 57.5999 21.2999 56.5999L21.1999 39.2999C21.1999 39.2999 30.4999 56.0999 30.8999 56.7999C31.3999 57.6999 32.3999 58.3999 33.6999 58.3999H36.8999C37.8999 58.3999 38.6999 57.5999 38.6999 56.5999V34.8999H77.6999C78.3999 34.8999 78.8999 34.3999 78.8999 33.6999V31.8999C78.8999 31.1999 78.3999 30.6999 77.6999 30.6999H34.7999C33.7999 30.6999 33.0999 31.4999 33.0999 32.4999L33.1999 49.2999C33.1999 49.2999 23.9999 32.5999 23.4999 31.7999C22.9999 30.9999 22.0999 30.2999 20.6999 30.2999H17.1999C16.1999 30.2999 15.3999 31.0999 15.3999 31.9999V56.5999C15.4999 57.5999 16.2999 58.3999 17.2999 58.3999ZM70.6999 41.3999C72.5999 41.3999 73.9999 42.0999 74.4999 43.2999C74.6999 43.8999 75.1999 43.9999 75.7999 43.9999H78.2999C78.6999 43.9999 79.1999 43.5999 79.1999 43.0999C79.1999 40.0999 75.6999 37.4999 70.5999 37.4999C65.3999 37.4999 61.9999 39.9999 61.9999 43.8999C61.9999 46.8999 64.3999 48.6999 67.2999 49.4999C68.5999 49.7999 70.8999 50.3999 71.9999 50.6999C73.1999 50.9999 74.2999 51.3999 74.2999 52.3999C74.2999 53.9999 72.5999 54.5999 70.6999 54.5999C68.8999 54.5999 67.1999 53.7999 66.6999 52.4999C66.3999 51.7999 64.7999 51.5999 63.9999 51.5999L62.4999 51.6999C61.9999 51.6999 61.5999 52.0999 61.5999 52.6999V52.9999C61.5999 55.8999 65.3999 58.8999 70.7999 58.8999C74.5999 58.8999 79.7999 57.3999 79.7999 52.2999C79.7999 49.3999 77.7999 47.3999 74.6999 46.4999C73.3999 46.1999 70.3999 45.3999 69.7999 45.1999C68.6999 44.8999 67.5999 44.4999 67.5999 43.5999C67.5999 41.8999 68.8999 41.3999 70.6999 41.3999ZM15.6999 64.9999V73.0999C23.2999 68.9999 29.7999 67.6999 37.6999 66.8999C71.3999 63.2999 104.7 80.4999 120.3 60.6999C93.7999 75.9999 59.8999 50.9999 15.6999 64.9999Z" fill="white"/>
<path fill-rule="evenodd" clip-rule="evenodd" d="M140 18.1999C140 17.1999 139 17.0999 139 17.0999H136.7V21.1999H137.3V19.3999H138L139.2 21.1999H140L138.8 19.2999C140.1 19.3999 140 18.1999 140 18.1999ZM137.4 18.7999V17.7999H138.8C138.8 17.7999 139.3 17.7999 139.3 18.2999C139.3 18.2999 139.5 18.8999 138.8 18.8999C138.3 18.7999 137.4 18.7999 137.4 18.7999ZM138.2 15.3999C136.1 15.3999 134.4 17.0999 134.4 19.1999C134.4 21.2999 136.1 22.9999 138.2 22.9999C140.3 22.9999 142 21.2999 142 19.1999C142 17.0999 140.3 15.3999 138.2 15.3999ZM138.2 22.2999C136.5 22.2999 135.1 20.8999 135.1 19.1999C135.1 17.4999 136.5 16.0999 138.2 16.0999C139.9 16.0999 141.3 17.4999 141.3 19.1999C141.3 20.8999 139.9 22.2999 138.2 22.2999Z" fill="#DB213C"/>
</g>
<defs>
<clipPath id="clip0_11352_1969">
<rect width="142" height="95" fill="white"/>
</clipPath>
</defs>
</svg>
